<?xml version="1.0" encoding="UTF-8"?> <svg xmlns="http://www.w3.org/2000/svg" xmlns:xlink="http://www.w3.org/1999/xlink" version="1.1" id="Capa_1" x="0px" y="0px" viewBox="0 0 512.001 512.001" style="enable-background:new 0 0 512.001 512.001;" xml:space="preserve" width="512px" height="512px"><g><g> <g> <path d="M495.773,364.984c21.576-40.07,21.576-87.914,0-127.984c-13.066-24.265-16.451-50.133-9.546-72.875l25.774-73.095H270.95 V60.037c0-33.078-26.911-59.989-59.989-59.989H59.989C26.911,0.048,0,26.959,0,60.037v391.928 c0,33.078,26.911,59.989,59.989,59.989c6.166,0,144.005,0,150.972,0H512l-25.774-73.095 C479.298,416.035,482.771,389.128,495.773,364.984z M210.961,481.958c-7.003,0-144.822,0-150.972,0 c-16.539,0-29.995-13.456-29.995-29.995s13.456-29.995,29.995-29.995h150.972c16.539,0,29.994,13.456,29.994,29.995 S227.5,481.958,210.961,481.958z M240.956,400.045c-8.831-5.122-19.071-8.07-29.994-8.07H59.989 c-10.923,0-21.163,2.948-29.995,8.07V60.036c0-16.539,13.456-29.995,29.995-29.995h150.972c16.539,0,29.994,13.456,29.994,29.995 V400.045z M457.643,447.956l11.977,34.002H262.88c5.122-8.831,8.07-19.072,8.07-29.995V121.024h198.67l-11.787,33.425l-0.19,0.577 c-9.397,30.543-5.235,64.706,11.721,96.194c16.781,31.165,16.781,68.377,0,99.543 C452.529,382.026,448.257,417.452,457.643,447.956z" data-original="#000000" class="active-path" data-old_color="#000000" fill="#FFFFFF"></path> </g> </g><g> <g> <rect x="300.944" y="241.009" transform="matrix(0.7071 -0.7071 0.7071 0.7071 -88.4864 298.3873)" width="29.994" height="29.994" data-original="#000000" class="active-path" data-old_color="#000000" fill="#FFFFFF"></rect> </g> </g><g> <g> <rect x="390.929" y="241.01" transform="matrix(0.7071 -0.7071 0.7071 0.7071 -62.1314 362.0157)" width="29.994" height="29.994" data-original="#000000" class="active-path" data-old_color="#000000" fill="#FFFFFF"></rect> </g> </g><g> <g> <rect x="345.937" y="196.017" transform="matrix(0.7071 -0.7071 0.7071 0.7071 -43.4945 317.0236)" width="29.994" height="29.994" data-original="#000000" class="active-path" data-old_color="#000000" fill="#FFFFFF"></rect> </g> </g><g> <g> <rect x="300.943" y="330.983" transform="matrix(0.7071 -0.7071 0.7071 0.7071 -152.1084 324.7389)" width="29.994" height="29.994" data-original="#000000" class="active-path" data-old_color="#000000" fill="#FFFFFF"></rect> </g> </g><g> <g> <rect x="390.928" y="330.994" transform="matrix(0.7071 -0.7071 0.7071 0.7071 -125.7603 388.3708)" width="29.994" height="29.994" data-original="#000000" class="active-path" data-old_color="#000000" fill="#FFFFFF"></rect> </g> </g><g> <g> <rect x="345.936" y="286.002" transform="matrix(0.7071 -0.7071 0.7071 0.7071 -107.1234 343.3787)" width="29.994" height="29.994" data-original="#000000" class="active-path" data-old_color="#000000" fill="#FFFFFF"></rect> </g> </g><g> <g> <rect x="345.932" y="376.979" transform="matrix(0.7071 -0.7071 0.7071 0.7071 -171.4552 370.0226)" width="29.994" height="29.994" data-original="#000000" class="active-path" data-old_color="#000000" fill="#FFFFFF"></rect> </g> </g><g> <g> <rect x="75.988" y="151.02" transform="matrix(0.7071 -0.7071 0.7071 0.7071 -90.7428 112.9617)" width="29.994" height="29.994" data-original="#000000" class="active-path" data-old_color="#000000" fill="#FFFFFF"></rect> </g> </g><g> <g> <rect x="165.971" y="151.021" transform="matrix(0.7071 -0.7071 0.7071 0.7071 -64.3882 176.5892)" width="29.994" height="29.994" data-original="#000000" class="active-path" data-old_color="#000000" fill="#FFFFFF"></rect> </g> </g><g> <g> <rect x="120.979" y="106.027" transform="matrix(0.7071 -0.7071 0.7071 0.7071 -45.7507 131.5969)" width="29.994" height="29.994" data-original="#000000" class="active-path" data-old_color="#000000" fill="#FFFFFF"></rect> </g> </g><g> <g> <rect x="75.989" y="241.003" transform="matrix(0.7071 -0.7071 0.7071 0.7071 -154.3704 139.318)" width="29.994" height="29.994" data-original="#000000" class="active-path" data-old_color="#000000" fill="#FFFFFF"></rect> </g> </g><g> <g> <rect x="165.972" y="241.002" transform="matrix(0.7071 -0.7071 0.7071 0.7071 -128.0145 202.9449)" width="29.994" height="29.994" data-original="#000000" class="active-path" data-old_color="#000000" fill="#FFFFFF"></rect> </g> </g><g> <g> <rect x="120.98" y="196.013" transform="matrix(0.7071 -0.7071 0.7071 0.7071 -109.3797 157.9537)" width="29.994" height="29.994" data-original="#000000" class="active-path" data-old_color="#000000" fill="#FFFFFF"></rect> </g> </g><g> <g> <rect x="120.981" y="285.995" transform="matrix(0.7071 -0.7071 0.7071 0.7071 -173.0066 184.3097)" width="29.994" height="29.994" data-original="#000000" class="active-path" data-old_color="#000000" fill="#FFFFFF"></rect> </g> </g></g> </svg> 